<mxfile modified="2024-06-18T05:45:31.556Z" host="app.diagrams.net" agent="Mozilla/5.0 (Windows NT 10.0; Win64; x64; rv:127.0) Gecko/20100101 Firefox/127.0" etag="pU_s4Q80u9JaUAAFrT5e" version="24.2.7" type="github">
  <diagram id="Ht1M8jgEwFfnCIfOTk4-" name="Page-1">
    <mxGraphModel dx="1313" dy="760" grid="1" gridSize="10" guides="1" tooltips="1" connect="1" arrows="1" fold="1" page="1" pageScale="1" pageWidth="1169" pageHeight="827" math="0" shadow="0">
      <root>
        <mxCell id="0" />
        <mxCell id="1" parent="0" />
        <mxCell id="Kkue_cFC0ciW1MiDXrlJ-3" value="" style="verticalLabelPosition=bottom;html=1;verticalAlign=top;strokeWidth=1;align=center;outlineConnect=0;dashed=0;outlineConnect=0;shape=mxgraph.aws3d.dataCenter;strokeColor=#5E5E5E;aspect=fixed;" vertex="1" parent="1">
          <mxGeometry x="60" y="193.09" width="103" height="118.91" as="geometry" />
        </mxCell>
        <mxCell id="Kkue_cFC0ciW1MiDXrlJ-4" value="&lt;div&gt;&lt;br&gt;&lt;/div&gt;&lt;div&gt;On-premises UnStructure Data&lt;/div&gt;&lt;div&gt;&lt;br&gt;&lt;/div&gt;" style="text;strokeColor=none;fillColor=none;html=1;align=center;verticalAlign=middle;whiteSpace=wrap;rounded=0;fontSize=16;" vertex="1" parent="1">
          <mxGeometry x="70" y="330" width="150" height="60" as="geometry" />
        </mxCell>
        <mxCell id="Kkue_cFC0ciW1MiDXrlJ-9" style="edgeStyle=none;curved=1;rounded=0;orthogonalLoop=1;jettySize=auto;html=1;fontSize=12;startSize=8;endSize=8;" edge="1" parent="1" source="Kkue_cFC0ciW1MiDXrlJ-5" target="Kkue_cFC0ciW1MiDXrlJ-8">
          <mxGeometry relative="1" as="geometry" />
        </mxCell>
        <mxCell id="Kkue_cFC0ciW1MiDXrlJ-5" value="" style="sketch=0;points=[[0,0,0],[0.25,0,0],[0.5,0,0],[0.75,0,0],[1,0,0],[0,1,0],[0.25,1,0],[0.5,1,0],[0.75,1,0],[1,1,0],[0,0.25,0],[0,0.5,0],[0,0.75,0],[1,0.25,0],[1,0.5,0],[1,0.75,0]];outlineConnect=0;fontColor=#232F3E;fillColor=#01A88D;strokeColor=#ffffff;dashed=0;verticalLabelPosition=bottom;verticalAlign=top;align=center;html=1;fontSize=12;fontStyle=0;aspect=fixed;shape=mxgraph.aws4.resourceIcon;resIcon=mxgraph.aws4.datasync;" vertex="1" parent="1">
          <mxGeometry x="430" y="220" width="78" height="78" as="geometry" />
        </mxCell>
        <mxCell id="Kkue_cFC0ciW1MiDXrlJ-6" style="edgeStyle=none;curved=1;rounded=0;orthogonalLoop=1;jettySize=auto;html=1;entryX=0.128;entryY=0.417;entryDx=0;entryDy=0;entryPerimeter=0;fontSize=12;startSize=8;endSize=8;" edge="1" parent="1" source="Kkue_cFC0ciW1MiDXrlJ-3" target="Kkue_cFC0ciW1MiDXrlJ-5">
          <mxGeometry relative="1" as="geometry" />
        </mxCell>
        <mxCell id="Kkue_cFC0ciW1MiDXrlJ-7" value="AWS DataSync" style="text;strokeColor=none;fillColor=none;html=1;align=center;verticalAlign=middle;whiteSpace=wrap;rounded=0;fontSize=16;" vertex="1" parent="1">
          <mxGeometry x="439" y="340" width="91" height="40" as="geometry" />
        </mxCell>
        <mxCell id="Kkue_cFC0ciW1MiDXrlJ-8" value="Amazon S3" style="sketch=0;outlineConnect=0;fontColor=#232F3E;gradientColor=none;strokeColor=#ffffff;fillColor=#232F3E;dashed=0;verticalLabelPosition=middle;verticalAlign=bottom;align=center;html=1;whiteSpace=wrap;fontSize=10;fontStyle=1;spacing=3;shape=mxgraph.aws4.productIcon;prIcon=mxgraph.aws4.s3;" vertex="1" parent="1">
          <mxGeometry x="840" y="193.09" width="100" height="138" as="geometry" />
        </mxCell>
        <mxCell id="Kkue_cFC0ciW1MiDXrlJ-10" value="&lt;div&gt;AWS S3&lt;/div&gt;" style="text;strokeColor=none;fillColor=none;html=1;align=center;verticalAlign=middle;whiteSpace=wrap;rounded=0;fontSize=16;" vertex="1" parent="1">
          <mxGeometry x="820" y="345" width="120" height="30" as="geometry" />
        </mxCell>
        <mxCell id="Kkue_cFC0ciW1MiDXrlJ-11" value="1GB = 0.0125" style="text;strokeColor=none;fillColor=none;html=1;align=center;verticalAlign=middle;whiteSpace=wrap;rounded=0;fontSize=16;" vertex="1" parent="1">
          <mxGeometry x="220" y="200" width="170" height="30" as="geometry" />
        </mxCell>
        <mxCell id="Kkue_cFC0ciW1MiDXrlJ-12" value="&lt;div&gt;0.023 per GB&lt;/div&gt;&lt;div&gt;&lt;br&gt;&lt;/div&gt;" style="text;strokeColor=none;fillColor=none;html=1;align=center;verticalAlign=middle;whiteSpace=wrap;rounded=0;fontSize=16;" vertex="1" parent="1">
          <mxGeometry x="640" y="200" width="150" height="50" as="geometry" />
        </mxCell>
        <mxCell id="Kkue_cFC0ciW1MiDXrlJ-13" value="" style="image;aspect=fixed;perimeter=ellipsePerimeter;html=1;align=center;shadow=0;dashed=0;spacingTop=3;image=img/lib/active_directory/internet_cloud.svg;" vertex="1" parent="1">
          <mxGeometry x="60" y="510" width="126.98" height="80" as="geometry" />
        </mxCell>
        <mxCell id="Kkue_cFC0ciW1MiDXrlJ-14" value="&lt;div&gt;&lt;br&gt;&lt;/div&gt;&lt;div&gt;SAAS Platform&lt;/div&gt;&lt;div&gt;&lt;br&gt;&lt;/div&gt;" style="text;strokeColor=none;fillColor=none;html=1;align=center;verticalAlign=middle;whiteSpace=wrap;rounded=0;fontSize=16;" vertex="1" parent="1">
          <mxGeometry x="80" y="620" width="90" height="60" as="geometry" />
        </mxCell>
        <mxCell id="Kkue_cFC0ciW1MiDXrlJ-16" value="AWS AppSync" style="sketch=0;outlineConnect=0;fontColor=#232F3E;gradientColor=none;strokeColor=#ffffff;fillColor=#232F3E;dashed=0;verticalLabelPosition=middle;verticalAlign=bottom;align=center;html=1;whiteSpace=wrap;fontSize=10;fontStyle=1;spacing=3;shape=mxgraph.aws4.productIcon;prIcon=mxgraph.aws4.appsync;" vertex="1" parent="1">
          <mxGeometry x="450" y="520" width="120" height="120" as="geometry" />
        </mxCell>
        <mxCell id="Kkue_cFC0ciW1MiDXrlJ-17" style="edgeStyle=none;curved=1;rounded=0;orthogonalLoop=1;jettySize=auto;html=1;exitX=1;exitY=0.5;exitDx=0;exitDy=0;entryX=0.025;entryY=0.288;entryDx=0;entryDy=0;entryPerimeter=0;fontSize=12;startSize=8;endSize=8;" edge="1" parent="1" source="Kkue_cFC0ciW1MiDXrlJ-13" target="Kkue_cFC0ciW1MiDXrlJ-16">
          <mxGeometry relative="1" as="geometry" />
        </mxCell>
        <mxCell id="Kkue_cFC0ciW1MiDXrlJ-18" value="AWS AppSync" style="text;strokeColor=none;fillColor=none;html=1;align=center;verticalAlign=middle;whiteSpace=wrap;rounded=0;fontSize=16;" vertex="1" parent="1">
          <mxGeometry x="460" y="650" width="100" height="50" as="geometry" />
        </mxCell>
        <mxCell id="Kkue_cFC0ciW1MiDXrlJ-19" value="Amazon S3" style="sketch=0;outlineConnect=0;fontColor=#232F3E;gradientColor=none;strokeColor=#ffffff;fillColor=#232F3E;dashed=0;verticalLabelPosition=middle;verticalAlign=bottom;align=center;html=1;whiteSpace=wrap;fontSize=10;fontStyle=1;spacing=3;shape=mxgraph.aws4.productIcon;prIcon=mxgraph.aws4.s3;" vertex="1" parent="1">
          <mxGeometry x="860" y="520" width="80" height="100" as="geometry" />
        </mxCell>
        <mxCell id="Kkue_cFC0ciW1MiDXrlJ-21" value="Amazon S3" style="text;strokeColor=none;fillColor=none;html=1;align=center;verticalAlign=middle;whiteSpace=wrap;rounded=0;fontSize=16;" vertex="1" parent="1">
          <mxGeometry x="845" y="630" width="110" height="30" as="geometry" />
        </mxCell>
        <mxCell id="Kkue_cFC0ciW1MiDXrlJ-22" style="edgeStyle=none;curved=1;rounded=0;orthogonalLoop=1;jettySize=auto;html=1;entryX=0;entryY=0.6;entryDx=0;entryDy=0;entryPerimeter=0;fontSize=12;startSize=8;endSize=8;" edge="1" parent="1" source="Kkue_cFC0ciW1MiDXrlJ-16" target="Kkue_cFC0ciW1MiDXrlJ-19">
          <mxGeometry relative="1" as="geometry" />
        </mxCell>
        <mxCell id="Kkue_cFC0ciW1MiDXrlJ-23" value="0.02 Per GB" style="text;strokeColor=none;fillColor=none;html=1;align=center;verticalAlign=middle;whiteSpace=wrap;rounded=0;fontSize=16;" vertex="1" parent="1">
          <mxGeometry x="240" y="500" width="140" height="30" as="geometry" />
        </mxCell>
        <mxCell id="Kkue_cFC0ciW1MiDXrlJ-24" value="0.001 PER FLOW" style="text;strokeColor=none;fillColor=none;html=1;align=center;verticalAlign=middle;whiteSpace=wrap;rounded=0;fontSize=16;" vertex="1" parent="1">
          <mxGeometry x="220" y="570" width="190" height="30" as="geometry" />
        </mxCell>
        <mxCell id="Kkue_cFC0ciW1MiDXrlJ-25" value="&lt;div&gt;0.023 per GB&lt;/div&gt;&lt;div&gt;&lt;br&gt;&lt;/div&gt;" style="text;strokeColor=none;fillColor=none;html=1;align=center;verticalAlign=middle;whiteSpace=wrap;rounded=0;fontSize=16;" vertex="1" parent="1">
          <mxGeometry x="640" y="510" width="150" height="50" as="geometry" />
        </mxCell>
        <mxCell id="Kkue_cFC0ciW1MiDXrlJ-26" value="" style="shape=image;verticalLabelPosition=bottom;labelBackgroundColor=default;verticalAlign=top;aspect=fixed;imageAspect=0;image=data:image/png,iVBORw0KGgoAAAANSUhEUgAAA7IAAAEMCAYAAAD534rYAAAgAElEQVR4Xu29DbwWVbn3/xPEF9AUtxtRtqAh5pGyDm3+aI+HJDI3HMwDSQayI03RFNz5EmqkQIopmYii+ZpxQI0ozOQo5jHN/D/KgawoTT0QghLKdovEiyi4fda83fNyz9wz9z1r7lkz89vn83zOeeSeNWt9r9+11rrWyzV7HHnkkR+BfyRAAiRAAiRAAiRAAiRAAiRAAiSQEQJ7MJDNiKVYTRIgARIgARIgARIgARIgARIgAZ0AA1kKgQRIgARIgARIgARIgARIgARIIFMEGMhmylysLAmQAAmQAAmQAAmQAAmQAAmQAANZaoAESIAESIAESIAESIAESIAESCBTBBjIZspcrCwJkAAJkAAJkAAJkAAJkAAJkAADWWqABEiABEiABEiABEiABEiABEggUwQSDWS7du2Kgw46CD179kT37t3RrVu3TMFhZUmABEiABEiABEiABEiABEigCAQ++ugj7N69Gzt27MDmzZvxzjvv4MMPP1S26YkFsvvuuy8OP/xwPXjdvn073n//fXR2dioLIk8V69u3L9avX5+nJrEtJEACEQjQ9yNA4k9IoI4E6JN1hJ2zV1E7OTNohprTpUsX7L333ujRowd27dqF119/He+9956SLUgkkNWC2COOOAIffPABtm3bpmTD81wpdn55ti7bRgLBBOj7VAcJqEWAPqmWPbJUG2onS9bKb133228/7LXXXnjttdeUDGalB7LaceL+/fvr29AMYtMRNju/dLjzrSSQNgH6ftoW4PtJwE2APklF1EqA2qmVHJ+TTUALZrX4bs2aNcodM5YeyDY2NqJXr154++23ZXNkeREJsPOLCIo/I4GcEaDv58ygbE7mCdAnM2/C1BpA7aSGni/2IXDwwQdj06ZNaG9vV4qP9ED26KOP1o8Uq3qWWin6CVWGnV9CYFksCShOgL6vuIFYvcIRoE8WzuTSGkztSEPJgiQQ0K6NakeMX331VQmlyStCeiD7mc98Bm+99RYTO8mzUdUlsfOrGhkfIIFcEKDv58KMbESOCNAnc2TMOjeF2qkzcL6uIgEtAdQhhxyCP/3pT0qRkh7IDh48mBlzUzYxO7+UDcDXk0BKBOj7KYHna0kggAB9ktKolQC1Uys5PpcUAU2TK1asSKr4msplIFsTNrUfYuentn1YOxJIigB9PymyLJcEaiNAn6yNG58CqB2qQDUCDGRVs0hO68POL6eGZbNIIIQAfZ8SIQG1CNAn1bJHlmpD7WTJWsWoKwPZYtg59Vay80vdBKwACaRCgL6fCna+lAQCCdAnKY5aCVA7tZLjc0kRYCCbFFmW6yLAzo+CIIFiEqDvF9PubLW6BOiT6tpG9ZpRO6pbqHj1YyBbPJun0mJ2fqlg50tJIHUC9P3UTcAKkAAXlqkBKQTYn0vByEIkEmAgKxEmiwomwM6P6iCBYhKg7xfT7my1ugTok+raRvWaUTuqW6h49WMgWzybp9Jidn6pYOdLSSB1AvT91E3ACpAAd2SpASkE2J9LwchCJBJgICsRJovijmx2NDAc0xZcjBN6bsZzc1ox68ns1Jw1rUSgEYO+fiEuGPkZ9N5vT3S2P4Mbz5qNZ1KExolPivD9Xj18GhZcfAJ6bn4Oc1pnQVnXz0o9FTNvlOrQJ6NQ4m/8CORJO2ffvBRjjgJWLxmFb/8kB/aO3Gfma/7HQDaSds/GzUvHQOjd9bd753Zs3vQ3/PGJx7DkoeV4I1JZxfyR7M7v+O/8BN/7fC8BczteuPsMXP2wxdVyUODN387AOTetdAEfPm0BLj6hJ7DrRSwcfTl+5vzXr92AhyYMRLftL+DuM67GwxBBwdhvYOLIZvTp2QP77Kn9eDd2bnkb//PgOZi9NNyWjeNn467xx6Kb+On6ZRfjgnn/G/6QhF+U2ulTltFpq9GRWQOJx7GwffMm/O2PT+CxJQ9heaqOZeupklk2PzcHrQqsBjQKDf9YaHifzl1454012LZrE37ZNjvVYEWu7x+P7/zkezBc3/LTBHy/cRDGfmMiRjb3Qc8e+8Bw/Z3Y8vb/4MFzZiOC6yMt3/f1KR2RuWgFNQLZbNQzaOxvx7rlj2L+TxfjhXYJHXadi5DjkxHGxwGn4ZLzTsVnjzgYB+gDqBg/29dh+SN34YdLXgxpdYTy68yNr4v/Hdlgv3fQXb0Eo+oQWUYKZK3g0NmH+q7+NWL87Lsw/lhttpdScMxAVhkX3ePII4/8SGZtBg8ejPXr18co0hrMOrFrx3v4wKxd172t4EZ0z+3P4a6rZuHRqibdA3Dy5DMx+rOfxI7fn47L8rAiFEBZzsBZPmHV/suuFxdi9OV2SHra9xfh3EE90Ck6w2+KztCeZwzA5NvnoKWvY1Ln6JCGXjEfU09sMMt7EqdcMRvfOrFRn8Rqixbvfyj+j657o4cYkKOt4DXi7JvvFSt+XYyKv/lbzDjnJrhD6xiyrPBoKZAVk+/tesXtv7//+gxceb9agWznrh14z3YsnbH+t7sdz911FWZV51g4fvw0nP6FgThw9b045/o4e05DccmdF2LIgSa/PfbCvt27oYsIFHe89wGsjurd5bfhvJvS3Pc06jfxR7/G2E90gSqBtVYnqb7vmlTswosLR8Ph+pDi+zduxhWzv4UTG82J9/b3Ybi+1t+vxpJR30Z4V52e71uTM5dP6ep4F8tvOw83dVMrkFW7nn5jf1fsbS5u7BRjzHQxxoSFZMn08rWXGt8nG6ONj5q/TvlXdHn7H9j4LnBgU1/9pAiwVSxAXyQWoINWASKWf/x4TDv9Cxh44Grce871qS7Y1W6NbD0ZVztn/mARvvxxq82WL4kFDrOf1f/l77/GGVfeHwlMnLG++kBWKHflHRg3w2cpc8D5uO1Ho9DPnO5FmyNGaqLPjwJiBwaytQKV/pzCgaz3GGYThoybiG9+5QQcto8IqNY+jO9NubuKQc3e7UlW9NJtVHWBcTs/1wtHzcCD5zdj/7fewluHHIJDdr2EByZNxQPWmGjtrHp3XRvFpOTeMej34S5069bNs2NrB7lrHz4LU57+itkp7cLaR67B9+98wQyItVXiKfhS96tx/fwQDFbH9p6oJ0Q9e2zC7649Gz98vmp8VT9QCmQDVzbVCmS9gVfTkHGY+M2v4ATDsfDw96bg7ipmi9YAJT2gizxQVG0yKQ9EGpilvCl6ITJ9f9SMB3F+8/54S/j+IcL3d730ACZNfcBerJLg+7d0nYEfjeqHLkJ3j1zzfdxpbblpu7RTvoTuV1+PMNdHir4fqn1FNJyNelqBrHvsH3j2zZgpziTuY+1yx1kri+5K0n4Z2ydLk/aQ8bHxKBy192qsLi3wD8S5t16L047sVnmxLWr5wg5LtbOhqh+Tl2a59AuKrR1XEyz/irpAWN7+0H6kArJI46XVX27fiq377o/93/OeBDJeMOD828S4cTje2/4BeoiFrmTn9AGxQ+S+XY35nyw182hxJJL+g5n1aOMpV+GmKUPQU6wyrrxjHPwWa/xfw0A2En7Pj6zJ7Ppl1+KlY78ndlh34aUHJmGqFckOmIzb57Sgr3eSYU5yO9atQ0O/fujq2rH9Gm54aAIGdnsTv51xDm46wNy1gAiizhJBVA3Hx4yOrR/ee+FuPIDx+i7xpt9di7PrEMlmPZDVTd54Cq66aQqGiJPggaugAQKKM7hV1GTkgaIWZcd/JtLAHP81VZUgb+IzCjMePB/N+6/HsmtfwrHfEz7uXcSS4Pt/PsW8fiAWJs8SC5M1uL45qUnH90O1r4iGs1HPoLH/NHx/0bkQXXrCE9aqXC3yj2P7ZOlkRPXj4ylX3Y8pQw5Ax7OzMfH6gFMsUctnIBvZ5rJ+GFs7WQ1ksR7r1jWhX78P3fNNvT3mlZeDxaLNOrF4c2TS/QIDWaeMGMhG8u7KgaxYiykdWd2y/Facec3jaBw0Ft8Yfwo+47obshqP33sD7n5WTI2sDtjzfmMH6RWcdN45+Orxx+LQhu7oJo4qdO76J15f+QvcPmtJFTu+kRpXlx/J6/ysCYSYzF58AR4/5XbMEWeF3ceIm3HJPTPwhd7ue6nGsUPghQd+j4PHa5Ngxz1ZsRhxv1iMOMBa2TV3b4/q0omO5Xdg2jWPVnkH2tKEeYcX38ci8fIeZSvHzpWx6/G34y/AVwf3w357imPs/3wdK39xO2ZZd4kszYgA/KxfdMXlk0bi6IPEMVdxfLh99eO494a7oUlL+6s5kG08Ea0XjkPLJ/vYd5q2bMAff3Uv7lqs7Upb9fUc6zzNbJ9rF9yyg7k44HOmOmwyO2CyYV9sWY5bz7wGj+t3F8fjlM8cgYMPMO4u7t7ZjtWP34sb7n4W7a6jpw5pmzvTTSedh3O+ejyOPbQB3Q3Hwj9fX4lf3D4LoVe2DLC+iXLsAPJyPNP3YrQO6o1tyyP6sqPMW+e8js9P+TKObRRt0+z60hLc+N0HSj6v1f+CCZ/Hv/T6WKlfWPPYTbh4zSlGvXz7E7FdJOx67sXfwLB/6YWPiXZrxzk71jyJ+Tffiaf13RKHDm+9E1tGTMYXj9oPr0lIgiHN9y2NrV+Giy94HKfo1wQ6RSDxTXHn2wo34/v+KuFn94pdni6dHVh+xzRcU+Wxdns8SMf3w3wqSMOaRir6vqVTz0kX6zi364pH8yW4Z8YX0LvCdYpa69l4YisuHNeCT/Y5wMhboN1d3vBH/Oreu7BY2z2XWs+gsd9a+HTkaAgKqhz9tn7vrwp/T2pwju2TtYyPYnf2/3zxDEzUTrBB7MBNF0f0g07ZhJYflLvA3tkL1YmnP7/1zi0YMfmLOGq/1/TrA4+EzeF042gntCbhm6ObcfjHtLF4G97806/x6K4ROFvk4nCfCBqIMd+ZhFOH9EOjJlyvbpMytuRyY2snYiAbaj8JY32khd/Se1bj4Qc+wEiR88S9CWLPC/YTJ4Qe3Ws8TitLIDUQIy46C189sT8atKtJ0K4pdmDNk/Nx851Pl+aWdn3Ox28arsSEzx0uxmtxKE3MBX8/fwZuejwkdnj++NL8xDWX0HJmvPoo7irNEd07sj8fYGy6dCmbnw7A+bf9CKN8g3fJwopRHAPZSPDCAlnAWmUUsyr9kroeSAwWx1fXv4F3PwD26tkXRxzSHV12iuDpWyLJ0JBv48aT+qOx/5FoEELduvFlbNgi/vdffoaZ848TyaX+A/3eeQNrNu0QNeyO3kf1xYEiuHnzt9eJBEZ1OJsaiUv0H8nq/EoJVPTJ7Dz8r7UD07kOSy+9EHeYuZSsQK7zlcX48qXaQUDTcffTgtfFOEwPdO3jYs2X3IMZIvLdLnZPzzAzRw2feh+mDDXvyG5bhz89vhj33Gd3OhVbf/x38JPvfR69SglprADcu2tvdShbxD3uLmg6dBfeWPMu9rLuEonJ9HO3XYZZzg5sw3qsP/QwHLRpPd744ED0bzpID2qc97VqCmTFDui0Gy/ECQ1aoPOOqMcm7D6wCX177ycCxt34xxPXY9Lc50v3EJ2DtLVLXkooox21s2xT4dhX6GTWWmDQJj7a3UR9UBmMbm+KthuOhb5HHILuXXaK+5LfwuWrR2L61z6Fpj7H4ND9xQDQsRZr2t8H3ngal4kMhdr7/qOf0Tbds3ofhb4Hiuy+YsJ9nbi/HOpZIYHs+tWrcehRR+nJvQw+/cJ9uXR0qQMdXQ9A102r8SZ646i+BwruDp8/XgQH3xXBQZfdeHe9+I1oQPde/dHjlXmY+HiTq92u/uTRBtOunaXnrP5Iu7dttNse2EQTcNRRRkgs43iUHN+3E2lYSdOsRY7OdUtx6YV3wEqjFt/3h2PqfVMw1Lwju23dn/D44ntwnxHxh/+l7PuhPuWn4Ui+f4i5C+k8ZmvtkuuCL2VBtmxT6Wh/LfVsPGUabrzwBDSIBcZd+vi42753ufsfeOL6SZj7vNXXyqin39gvgpeLZmLGl/qiy9aVuGPcDCP5V7WB7PYQfw9XWs2/kOGTkcdH16L9Lmz9+3P4+U/vw0MhWbIql9+MidO/hk819cExRkePtWva8b4ICZ6+7GYsj6QTOwDpuVnspIl0nka3Z4w168LmcCKmsI+YW3oEevU/DN0//Aj77OM8Pj1QyGOmyJexF3a89RrWbxZjV3ezj7fmhLUc/ahZAbU/KEM79tv9jxZH8vPdE2OP9dUGskvO+h8cc9d4HNvVPd805j9d9MSjrw3zZkK2bC+uSWkLHVpMsGcvc97WiR2rHsCF3/2ZfvKn1Cd2dGD/fXeLOeF29Oh7BA7prk3wIsQOb5gL2mbfsve72hzxIHMuYc1JtMmZ52jxeut+r+f6pDWH8558ql0+iTzJQDYS1vBA1hs4NJ82Fvv9YbG526G9RByTvF8ckzzAuZMVdLR4OMaM3Yzf6ztgxl/jubfivtPEeYU6JgyKhCbij+R0fuWTWXv3oxPrll6KC61I1tq9sQJJc4egl3mc+Dgze7GR2XidmZTpQ0/yGGO1ddLYIWjSOhLxt/vdl/Ffd5i76hXabmVVdgbG1s6F+5isrYHO9b/BjOm3mFkw7c6vtNtcmhBsxZ9/8h1MW2JMrO1O3+6EgrMWWyvW5XckrGC0s+M53HbZLGixs/ZXGqytzuxz5u5rSYtGWUP23Ir39t8fW61s0eZR7p1ByRGcHXdQ1l/HaqgeyDafhrH7/QGLHUGFtYjk3BEKmiQPHzMWm3/vyDTaeC5uve80HClCR/1IeVgmrpBAtlMkp/rT/bfi1pLvRvDlUhvFfbOHv4cp5mXgUmZui7Nlf9eR1yYMGrQvXnjBCOP8BmZDC/u5yi4dhepl7ShZeuhE547X8d+3/wC3RA3cQvoAKb7fOB6ztQlEN+Mkhp78O2ARS6y0GKcf4vi+tvM/aRLGDmkSiyS65+Pdl/8LdzhOPQQ1O23fD8wKagWaPhqO6vvbpxiJ9EoZ4fWyhmDPre9h//23lnzoazc8hAkDd1a8alN9Pa2gWZySee42XDbrcXN8tPtK687058yEf/Hr6ZPsyUz4hh0iaLpXXCuyOspqA1mE+HvEsbWWn0nxSXM3MnR8FP32jSc1icCtAX3NkzC7312Fn//gu3igYt6DCOOvL/PoOimd4OkUAcXr/43bf3BLac4WPoez37P+NzMw/RZzvtY0BrN+eDY+LeJrayFngKjnbHHKY5s4sXeJOLFnDK1+85larFnfZ+Rox6qzXyBbhf0qzCGijPVVB7JCy5vMPA32VyjM0xk7jUWtXp5P+lhXzLrsdJ9CsOdtdu6UUp+4WZxAu0ScQNOEUhr7IsQOpblEp/hKxpXiKxmag4nEaVfdJI7zi1Wajmcxe+L14nN83vmfrUXn4qO1IFnt1a76KtJIKLlixYp6v7bi+zKU7MluR/nxqiacNG4cTvrs4WKX7RB8rPu+xlFG8WfvcgTfkW0cdCrGjPgcBvTpjcMb9i9lScxqUgMpnV/puJFjMqvPZ83jp9YurU7Zfef1keON35Q6H3Oyu68e2HZgin7fKeC+j5jUnjpuPMYOOxoH6cdRHbukvlK27Or5NJB3gq0/G3BUV/sn6/fWBNQatMsWM+yj7Za2grMW/x2/PuNK3F/WkQ3FFfOn4sSG8kyw5YswJtuuomP+pggu+2nHCE/CtocfAU49DR//u5EtepB+F2pPz+eR3MBCd2V8jiw3nTQO4076LA5vOhSHfKy7kUXYcKxSyv7AcjVbjhmBzw3og96HN2D/UubxiN/TDQlky5IPacNImC+XdmQ9SSS8x92tJGedO/DWX5/F0oeX4CHPt4nKB2bLrsF9rvtzTJB+j1uG7zdax31dPm7r3v1pK3m+r9lu3PixGHa0cerBu8hTTjV937c0UJYN+N3luO28m/BMmYar8H0Ynyizjtb1006ynLQNhut/HH/Xj3kPMhZt9/RPilKawpoTvsj1HHoF5k89EQ1+n06zfMX6N3MRLX49/T+/g3dWYN53Z2KZc5O+2kDW+/kor78nOC2T4ZOl6lU1PorjtbOuwNmf7gnvSYrA5lYq3495NTopTfz9EjGGzOFWB+vRWly1ggIrm3xQG6UnJcyKduATyFZjvwqBrBh4Q8f6WgJZ41SYuMaz6Xe49uwfYo35icXNZv4Tb5mW7cs/B9koEp/dJxKf2Z+KtJ51j2f270JjB6tuna9g8ZcvtZMSeueSZfM/AdKaX5jteh7WNZ36JSmtVbYMZCORC9uRtQNSQ4B7mcdI9tHv7/3jtTexYd1mHHLiUHzclRzCP5AtrdSIFdt/bnod/3jjdby65zH48mcOyWx2PhkDZ2llK9Bmzl01+/MXax8+H38ceLs41rMFz81phf65Tyso/lAc15izGSO0CVLYbre4Q3bRzEvxpb7dKg/CVocQWE+/lTWfQMo74fTetXKU7+08qz9aXDmLnbt8i62xg33PwdoiAcRO2RxA/L+WQx3Htxt8vtfrU++ggbzUDjOA2cvKFqrdH/3Ha3hzwzpsPuREDDUcq3IgWzo+qd052YTX//EGXn91Txzz5c+InNJyAlk947UjM1gkXw5KvlP23xtx4rmXY9JIc0FFu2fzzl/x0M1z8J/mMb3ygdkOrP7+zJP4q/gEhvevfdVdeOh5+4j78lvPhNg0kPYX3/etezrmdw38aubyXfm+33jiRZh56ZfQt5vn5Ie3Lgr4fujiUJmuqvD9R4zM70dp/eboe3Cwdk8Z4pqH7votOFT7FNriw/T7sQ2ez6J5UVVdz4pJqjwTYmf/HquenrH/lSEYN+kCjBvUIHY33CdXqj5a7L1yUcckXPF90scJo46P1v1p67pI1J7Gr3y/QLYanVi/tXIwlOpi7/IHzuHWBX/Gyhq3rHHN0vpb4v7scp8vQe5Y+xQWPlGfb8xHxR30O7na8Qlkq7FfUCAbcayvKZC1Ejv10uYM30fHGO0O6abSaRRvmZXeEaQT75We4HHdc/0n8lzCr8+3vtFuBq67zTwHpcA2rnKSe56BbCS2lQPZgeLY77ViWaXbLrFDNVXsUB1rHW37M34yeRqW6OdI/IJWv/9m7zJs+M3lOO8W8+xNxrPzxe/87Mls6ZuuDttZ3/R1ZgW2dmp3vbgSrx7djIEfOHcILM6bxbHMreJ4pshxHHS81amRCHYoHdNzfhvVLGOPvYydeXvnLjiAKO1CWcdBfI+WOrXViVcWfxnaleDaA9lKO7L2DrO1qLB1+e14suF8jNnvaf0buSLLlrhrvDeeu/UZ9J5yGvqVfcvX7XAVJ7MDxbHfa8Wx3267RIw6Vez0HGve0dsujlZPFkerjQNafm31K7e0c7/hN7j8vFvMBEphi1SeDiJkR9Y9AEX05ciDj1UX8dmv0f+OESNORrP2eSLHhDh4wPNk9i7r95JLxx/b90uf4vB8a1Bvg/UdQveqcRK+Hxp4idqo4Puh9QwMZKP4vtUPb8Xy259Ew/ljsN/T2vUMzfVF3oG9n8Otz/TGlNP6eZJwlQ+0VdfTqnelHdnSLqesevr1D8eLtn5X5FgQ32t2HhUNGBtK/Y610Fa1v0eapFT1o9g+GfS2CONj6UpAtYGs9k5v+ZUC2Sg6CbJF6fRUhTmcFch6d9ZFNa0Tet5Atl5fLahKDFX+WK52KgSyUewXEMhGHetrC2StT+30w5YXXsDWQYPQ5MjTEBTIVtqRtXZgg+pTn0DWbtfbYnf59g/PEXO5Xu4re1VqpV4/ZyAbiXTAZFdk4Tt53EU494sf15PNrF4yXUy2ReBpda6OVT77PLz/0WJ7J8cObu3/5rgsntHvpcXu/Eqf1fC/y1jquJyrR9YRlZ07sXOffdDVs0NQSvC0XVyoFxt62kV9M8+TiI7acN3xm/Dw/Adhn9502CFw99ZKNOI3KdRHOOP+XunyvG1vZ7Im7dMzVuKl0v0ES1eeo82lO6yOhFfVB7KOSXjQHVlnUgrLHm+uw7qGfvjYSi2xkdjqNicG7+ufODoc61wZZaNOZhtx1MnjcNG5X8THxQVFm4vlh1tQ2jV0cPLbkbWyiLsCXscd06q/B1lVIBvRlyNObLecMhKdLzxq3qEWLWo6D7fecaq432tn6vQbCI37iuIUgXcHqWkkvvOV7vjh3F9oywH6PecTekbcmY7Ubxo/iuv7Jd/29Tl7scA1SYzh+8PbrsPxmx7G/AeX25nKBwrtzRQ7kWLdoHxCYsFQw/erDhCdAXgE37fs8abu4x/DSvOUi9HnvC8+UdGAfoevM64dVEhgU309w+/O7RR9/LcuNxKnyKlnwNg/XBwrbROneLpsFn3RJeIEg3ijdTS4U1x9uVLc49avp9n9eKl/iujvSX6aNq5PRh0fjzj/Iry91L53KjIuRDtaHHX89ZlriZHM/ExX8F3qkk6CbBFlDmedTujivuuM0gKsfUfWmmuIwcydrVkcf/16azNeu+kucW8xG3+xteNqZm13ZJ1+bvUjtYz1tQaypRN94lRUpzgoZFypMDo7b5mhd2S1/BzXifwcItNkLYGs6xRY5L4lYLy3Fo03rcRKcbS4ueElPDBpKqwvW6qqUAaykSzjk/ABe2CvfY1P44jsKPj7b27BNfPE5z+08prbcNfVJ+MwkVnRyFC3J3r37yU+ni7+R6QztXdt7CNwIosQ1q/+J3Zt+iV+f+C38I3jtAxn2n97E7tFxuPeB3RBdxGMFfWObGkgCAogfb8faX/rTxipfIegdD9G2My7+lf6N3sXyNpN1ez98i+n4bL5PkeBzLtZ3fxWE3WtWXWy6nOcGUBsx9ate2OfXf9wZ+LcKe46XCnuOmivsgbXrdqHuffAdk/2u45n54rv8hnTn1oCWQyYiBtnfQXHiOCxLGuxaPMrv5qJS0vfSzDvT/TSOnIRWFpHts32fWbfTnTp8oadmCfAz/zu85U4C5vt+PtvcMs188zPCjWj7a6rcfJhon473sJr6zdjz9790Uu4hZYh0hnIltqv3ScVR/ux5Q/45p8/gV984zjhhci/fZ0AACAASURBVGbW390i43HvA9Clu+aZEQO4qgJZ4PTrfhHuyxEHHyEUtDV/VJ5xWRy7vlJk8Nbmzb4DoSMIs+y6Y68D0dS3N/Z7zTqOrWoga39OJyiALAW6rkW+2n2//H653dd37ngZv5x2meGP3j9FfL/6AFGL+qrwfStxnkiQ00Us1s5pnQW919EX6T6DfcXMrssbZlb5CuNrLfUcMPFGzPrKMWLhuDxrceeOV/ArcfXD7qKMo3G9YtUz6MRGo2juLSLxlZbRx0rMYmdwNvxMyz5/OLq9vw0NDSLRSp52ZCOOj7qNjzCugXTs6I6GIw4zPz3Tjmd/PBXXW4myvDqJWH7pU0baWCHmWm9iC/7wzavwf6PqJKjvjTSHE0l0pt2IC09oEDkadmOblklftLFJZJt/f8uHwuY97FNezgUNK3PtB91FhuMmHLTN4UOR5qPp/ij5QFbrjqL7eZyxvuZA1pGoSxyvcwV7frunpSz4ZVmLd6P92R9j6vVGArDogax/7ND2B/vzO6V+2ZgQej4bGDTe20mftMf8cn6kqz7/tzOQjWQVv4QPWoCzGZv+9jweWrgET6x2Lz0PHH8dLhtzrN5p7xafblnxczHUjz5b7Hh4zrQPHI/rLh+LT2rfAxXfetr49Bycu2BfXDJjIv7tcPGtSHFPVv/+0ysDcYX2capC7shaZ/cr7YbYR4+dGdas3SjxpE9WWispjBCBK4mMNrE7GZPPHI3Piu9u9uxhfK9U//bmxpfw/M/vwZ2+GV3tTsD1TUWPxkrHD/XjKP+Lr1o7Ybc/iA/+/ev4P/3E527M75s+ZH0bUSujdEf2YVz9wpH49uhP6smn9O+oPuH+HllNgaz2jqaTcN4FE/B583uj+ndWN/0Nv1t4e1mbS+9wHa1ydLBhd44dHbcTkXZ0fLN45/MPLcSSJ1aXMnfrv9H85bIx5ndWt2Hdip+LSfRo/Zt9zkBW2wm5ZMZZGKqxFJOMnX9ZjNOv/A1OuWQGJv6b+W22d17Fo3e9goFXnCY+vJBMIGvUI8SXIway6782HZef+inH93O34O1Xn8ZP59jfDw4aCLXvWk/65n/gX53f3nz7VTxTsquigaz1KZtKWaVLR4/dn7aq1fcHnDwZZ47+rPhWb0/00D9Uanzzb+NLz+Pn91jf3fUOHOr4fi0Bot6ayL5vnzRwZmUv7VKIxd3gXWubW6319PuW8qa//Q4Lb/faRkY9K1w9aBTjx48nYOA+YufPXERsPPFc9/e9te9Ar/7/cIPIWJurQDbi+DhwzHcw6dTB6NtgLPrrY+j6FXh0/k+Nb/4G/UUsX8/IKvr0s4Zq317XPs36Fyw+XUtmqMm5/JvbZTqpcB8z2hxO7DBPuwCnN2tjijkWi2+aP9HrPEzxfkdW869vT8Tw/vY3zHd0rMeKR+fjp44vVESakqb4o3oEskZ3FMF+2g9jjPW1B7LivWY+hC6OTzYa0zTv53e0Ooos+N+YiJHWN4S1OUn7Oiz32D56IGvOhbyxw5//zfc799EDWbtd4vsTFbPOpyjBslczkFXJGjmui9zOL0+gqgggKiR7yhMRtiVfBOj7Qfak7+dL6dlpDX0ySVvZi7lRFnSSrEkSZVM7SVBVp8xGcbLmFnH9bf8MJHmyqDGQVUc/ua4JOz9OZnMtcDYukAB9n75P91CLAH0yOXs0jbwKs84fIu5Pq//ZklooUDu1UMvKMwMxWXxDXnypEv944vuYNHdlJirOQDYTZsp+Jdn5cTKbfRWzBbUQoO/T92vRDZ9JjgB9Ug7b4Vfcg/P+tSvefr0DO0SR3RuOwGGN2lUkb6IpOe9ToRRqRwUrSK7D8KmY+5Um9DhI5OMRZ/Q7xZcy5k683sh9kIE/BrIZMFIeqsjOj5PZPOiYbaieAH2fvl+9avhEkgTok3LoNk+8AReO7F/Ko6HllNjRsREvPf9z3HPn03bWczmvU6IUakcJM8ithHVXfLdIzLb6cdx7g513Q+6LkimNgWwyXFmqhwA7P0qCBIpJgL5fTLuz1eoSoE+qaxvVa0btqG6h4tWPgWzxbJ5Ki9n5pYKdLyWB1AnQ91M3AStAAi4C9EkKolYC1E6t5PhcUgQYyCZFluVy4KQGSIAEwIkPRUACahGgT6pljyzVhtrJkrWKUVcGssWwc+qtZOeXuglYARJIhQB9PxXsfCkJBBKgT1IctRKgdmolx+eSIsBANimyLJc7stQACZAAd2SpARJQjACDEcUMkqHqUDsZMlZBqspAtiCGTruZ7PzStgDfTwLpEKDvp8OdbyWBIAL0SWqjVgLUTq3k+FxSBBjIJkWW5XJHlhogARLgjiw1QAKKEWAwophBMlQdaidDxipIVRnIFsTQaTeTnV/aFuD7SSAdAvT9dLjzrSTAHVlqQDYB9ueyibK8uAQYyMYlyOcjEWDnFwkTf0QCuSNA38+dSdmgjBOgT2bcgClWn9pJET5f7UuAgSyFURcC7PzqgpkvIQHlCND3lTMJK1RwAvTJggsgRvOpnRjw+GgiBBjIJoKVhXoJsPOjJkigmATo+8W0O1utLgH6pLq2Ub1m1I7qFipe/RjIFs/mqbSYnV8q2PlSEkidAH0/dROwAiTgIkCfpCBqJUDt1EqOzyVFgIGsTLJNJ2HcvwG/f/BpvCGz3ByUxc4vB0ZkE0igBgL0/Rqg8RESSJAAfTJBuDkvmtrJuYEz2DwGslGN1jgIY78xESOb+6Bnj32wp/bc7p3Y8vb/4MFzZmMpmnHJPTPwhd5Ax7OzMfH6Z6KWXIjfSe38xILBWRNHY+in+6Khezd0EQQ7d+3A1o4X8cgNM/Gz/y0EUjaSBDJBQKbvN510FiaOHopP921A926652PXjq3oePER3DDzZ6DrZ0ISrGTKBGT6JDgep2zN+r5eqnbEvPrUcafjtCFH4+AD7Hn19s0b8PTCNvz4yfq2jW/LJgEGslHs1ngKrpj9LZzYqIWvu7Fz+/v4UPxfXffugX32XI0lo76Nn2AAJt44C185Gnj1l9Nw2XxOqZxoZXV+TSO/g6vP/jwO28coXQtg3/ugC/bWFxc247k5rZglsfM7fvw0nP6FgThw9b0453qJBUfRHX9DAjkgIMf3mzDyO1fj7M8fBsP1tQD2PXzQZW/02Ef0y5ufw5zWWZDpofT9HIiPTfAlIMcnAY7HxROYLO00Dvo6Lrv0dAw8QFuQ1KbWO7H9/U7stW93aGuUq5eMwrd/IpHvgJMx+czR+Ownd+D3p18m5uz8ywsBBrIRLDng/Nvwo1H90GXXWjxyzfdx5wvtxlPaLu2UL6H71ddjfoRyivwTKZ3f8Cswv+1ENHTpxI43luOh++bjweXmIW7NFpNGo/fvr8KtEjfDz755KcYcpc2T56BVZoRcZDGw7YUiIMP3h18xH20nNqBL5w68sfwh3Df/QdiuPxaTRvfG76+6FRJdH/T9Qsm0UI2V4ZPgeFwozViNlaKdARPxox+MxSfEquTud1/GY/PvwJInVsOYWTfhpPO+jRO3XYZr75eIePg0LLj4BPSEtfkksWwWlSoBBrIR8A+ftgAXn9ATWPswzppyt+lsER7kT0oE4nd+A3D+bT/CqH5dsHP1EkwXS3Uv1oEvJ7N1gMxX5JpAbN8fcD5u+9Eo9OuyU6zSTxer9PXwfDCQzbUqi9242D4pTqBxPC6mhuJrBxg140Gc37w/Ojuew22XzcLj5t5QokQZyCaKN83CGchGoN949s24V2zLdenswPI7puGaR/1TOVlBj3EkYjimLbgYWvzr9+fc4Rs45juYdOoQ9GvUjseKo8tbNuCPv7oXdy1+ITdBc+zOr/kS3DPjC+jduQ5LL70Qd4Se3B6IERedha+e2N+8R6sdRezAmifn4+Y77WRcjYPG4hsTR2JIv0ZxTFxYShxvaV/5U5z13KfN1TuP9UQQPUrqeZcIAuRPSCDDBOL6fvMl92CGSD7QuW4pLr3wjgj3YOn7GZYLq14HAnF9EhyP62AlNV8RWzv4Gm54aAIGdtuKlXeMw4yl4e1sPLEVF45rwSf7HFCap23Z8Ef86t67sNg6Ianv5F6ACZ//F/T6mJY7Rcz5/rkGj910MXZPME7Wuf/kX0ULbwl/kQQBBrKRqA7H1PumYKh5R3bbuj/h8cX34L6n3QGtO5BtxsTpX8On9rdf0PXAwzGgdw+ILUUsmS7u1YqNhYEiSJ4pPGyvHW/htfWb8QG6o/dRfXHgnjvx4sJv4fKf1WOpKhKEWD+K3fkJTku1nmj9Mlx8wbyQyexAsZsyU3Rc2rmVbXhz/Rt4d89e6N90kLh7IY4lr3oAF373Z2hvFB3qj0WHuo/4b2+9hvWbP8BeBzah77bf4D8WfojpX/sUmvocg0OFDXd1rMWa9veBN57GZeK4Mf9IgASiEYjr+1a/un7ZxbhgXtgKFn0/mlX4qyITiOuTYoDleFxQAcXWjrUzuv0F3H3G1Xg4hGPjKdNw44Un6FfKdr3zBtZs2o0Dm/qi935i52H3P/DE9ZMw93ngeLHg+V2x4Nll97tYv/pN7BBz6V79e+CVeRPx50/diJP6N6L/kQ3ohq3Y+PIGbBH/+y8/m4n5KwtqyBw1m4FsVGPqdzAnYeyQJnTX76bvxrsv/xfuuOFuPGvGmu5A1lNw6U7ATryy+EpcqiWDGnA2bp49BkdtW45bL7mmdLyicfxs3DX+WHSLFLRFbUC6v4vd+VkDZ4Qd0dKdZseCgdZ6u0PchN9dezZ+2MO8M7FF8D9T8NcRNWLQoF544QXj+CKPFqerG749+wTi+n7FftXbzVr5DOj72RcOW5AYgbg+WQpkOR4nZiNVC46tHSuQjZSgbxRmPHg+mvfvRMdzt+GyWY+bpxTtBctdLz2ASVMfwKlmPpO1D5+FKXebk/KmQRi07wt4QVv/5NFiVSUVu14MZKtE2DjoVIwbPxbDjtZ290TuTMcZ/+AJl+V0e7mdceKP8Ouxn9A/H+P7F8nRq2xASj+P3flZgWyEe8oTf/RrjP1EF7z52xk45ybnclsjzr31Ppx2JIx/e6TZvHsnFiXWrMCTSxdhaSnhgAGKgWxKguFrc0Mgru9bPuiaoATQoe/nRjZsSIIE4vpkKZDleJygldQsOrZ2rIDStYEQ0NahIsHnVJHgc9eLWDj6cvzM+bNTrsL9U4bgAPPftln3bsXpxr8+uxQPL3molBBQf4yBrJqCklArBrI1Qmw88SLMvPRL6NutE+uWXooLxaXNoEDWyrgpolj3xXYrOHvrT/j18vXlNdmxFk8tfCLCnbAaG1HHx2J3fqd9H4vOHYQeu17CA5Om4oEKJ64r7eBYibusO8oDx0zDBV8djH7aMRXxt3vbOvz///kD/NC8B81Ato4i4atySSCu75/2/UU4d1APWCvvlS5b0PdzKSE2SjKBuD4JjseSLZKd4mJrZ8Bk3D6nBX1hnowTx4ID/yru3ooTjUvFiUYrC3HjiTj38kkYaW4yiW8z4p2/PoSb5/wn9Gu0DGSzI7Iqa8pAtkpgzp97gxy/SVTpOOsH9r3YUhlWILvpd7j27B+ikj/HqKYSj8bu/BB0xKS8eZYdKu3Iuu/bNeKok7+I0S2j8G+fOEB8ZknYaqq4wyyOozCQVUI+rESGCcT2/VEz8OD5zdhfJNt77rbLMKtCikv6foaFwqrXjUBsn+R4XDdbqfai+NqpIuO1FXxW2pH13rVtGoLR/z4CI05uxmEiTUopsSoDWdWkJK0+DGQjoBzedh2O3/Qw5j+4HKX0TgPFatBMsRokHMUKmMoCWce9WN/PRliZ/+D9rIS4p/n1VjS/dhPukvlhxAhtTeon8Ts/kRjr3FtxrTgX3E3cT25fuQh33GN/SxKi8xo3cRQOFt+RXXas+d3foHtyeBO/ve4c3NRjJEa+8ijsJNQjMeOBC9D8MTubnWXTLctvxZnXGLdo+UcCJBCdQHzfHyiuBFwrrgR0E0cm2rFy0R24x9EXNw0Zh4mjDta/I7sx7I4sfT+64fjL3BKI75Mcj3MrjpCGydBOozgWfJM4FtxTZBbe8ff/xt23PIgnVptnbRqPwsljzscQ/Tuy4Xdkd764EN+6fDUGjezEC4/aX/poOu9W3HGquEdm3eMuBbJr8fBZU2Bdoy2qHfPUbgayEaxZ+o6s+DTL9vc/FE/sgb327W7ckd3xMn457TJouZvcgawje+b2N/G/r78L7Unrb+tffoaZ89fhlGk34sITGsQ92d3Y9uZ6vPGuyFvcqz+aDtqG5XNaMevJCBXMwE9kdH7ah7JHTrsGk05oFJ8p0v60T+q8hw8+6oq9e2ifLrICUEeW6bKsxSIIfvbHmHq9SBqg7Yh/ubeR1fgDYK+efXHEId3RZavIpneRyKYn+tWS7Tt34K3X3gS2/AHfvGp+BoiziiSgBgEpvt80EtOumYQT9Mzxmuvvwo73PsBHXfdGD+27WaV8AvR9NazOWqhMQIpPcjxW2cSJ1U2OdsRmzblX4IpTP2EmT9W+fLgd739oz62Nz1iKnKgTb8Ssrxwjfleetbhzxyv41cxLxRdAtM9dtqH5Iy2r8Q7RduvrH53iQxdXimz3Inlno9h8uldsPol5++5312P1P3dh0y/bMDsnc+zEDJ6BghnIRjDSgJMn48zRn8W/9OppTJr0AKoDG196Hj+/505YX+FxBbIfVk7kZH9HVvv21bcxcbj7e6frVzyK+T9dbJztz8GfnM5PA6EdAx6Ds88YiqMPNr8ppn17d/tmbFj1Wyy+a4GRRVrLMv2NiRg5pB8ajQ/EYmf7Oix/dD5+an2fd/i3MHfCMPRtMBcldu1Ax/oVeOSuH2KJkbRYS3WMS2achaH99jO+8fuXxTj9yvtzYBE2gQTqQ0Ca7+sr9WfjjKFH4+ADtIUrza3F4uLmDVj128W4a8GzRkZL+n59DMu3ZJaANJ/keJxZDdRacXnaEVsT4jTNuPFfwuC+Deiu7Qzpc+ut6Fi9HL+8/xY8Zs7Dmk46DxdM+LyYg3/M2EDa9U9s+tvvsPB2a/49AF+bfjlO/dTBOMCa7215G68+/VPMudscF0TpA8dfh8vHfhIHiUI6d23E03POxU05OfVYqz3z8BwD2TxYMQNtkNn5ZaC5rCIJkIBJgL5PKZCAWgTok2rZI0u1oXayZK1i1JWBbDHsnHor2fmlbgJWgARSIUDfTwU7X0oCgQTokxRHrQSonVrJ8bmkCDCQTYosy3URYOdHQZBAMQnQ94tpd7ZaXQL0SXVto3rNqB3VLVS8+jGQLZ7NU2kxO79UsPOlJJA6Afp+6iZgBUiAC8vUgBQC7M+lYGQhEgkwkJUIk0UFE2DnR3WQQDEJ0PeLaXe2Wl0C9El1baN6zagd1S1UvPoxkC2ezVNpMTu/VLDzpSSQOgH6fuomYAVIgDuy1IAUAuzPpWBkIRIJMJCVCJNFcUeWGiABEnAT4MSHiiABtQjQJ9WyR5ZqQ+1kyVrFqCsD2WLYOfVWsvNL3QSsAAmkQoC+nwp2vpQEAgnQJymOWglQO7WS43NJEWAgmxRZlusiwM6PgiCBYhKg7xfT7my1ugTok+raRvWaUTuqW6h49WMgWzybp9Jidn6pYOdLSSB1AvT91E3ACpAAF5apASkE2J9LwchCJBJgICsRJosKJsDOj+oggWISoO8X0+5stboE6JPq2kb1mlE7qluoePVjIFs8m6fSYnZ+qWDnS0kgdQL0/dRNwAqQAHdkqQEpBNifS8HIQiQSKEwgK5EZiyIBEiABEiABEiABEiABEiABEkiZwIoVK1Kugfv1exx55JEfyayRKA9r166VWSTLqpIAbVAlMP6cBHJCgL6fE0OyGbkhQJ/MjSnr3hBqp+7I+cIQAipqkoFsDmWrotByiJlNIgHlCND3lTMJK1RwAvTJggsgRvOpnRjw+GgiBFTUJAPZREydbqEqCi1dInw7CRSDAH2/GHZmK7NDgD6ZHVupVlNqRzWLsD4qapKBbA51qaLQcoiZTSIB5QjQ95UzCStUcAL0yYILIEbzqZ0Y8PhoIgRU1CQD2URMnW6hKgotXSJ8OwkUgwB9vxh2ZiuzQ4A+mR1bqVZTakc1i7A+KmqSgWwOdami0HKImU0iAeUI0PeVMwkrVHAC9MmCCyBG86mdGPD4aCIEVNQkA9lETJ1uoSoKLV0ifDsJFIMAfb8YdmYrs0OAPpkdW6lWU2pHNYuwPipqkoFsDnWpotByiJlNIgHlCND3lTMJK1RwAvTJggsgRvOpnRjw+GgiBFTUJAPZREydbqEqCi1dInw7CRSDAH2/GHZmK7NDgD6ZHVupVlNqRzWLsD4qapKBbA51qaLQcoiZTSIB5QjQ95UzCStUcAL0yYILIEbzqZ0Y8PhoIgRU1CQD2URMnW6hKgotXSJ8OwkUgwB9vxh2ZiuzQ4A+mR1bqVZTakc1i7A+KmqSgWwOdami0HKImU0iAeUI0PeVMwkrVHAC9MmCCyBG86mdGPD4aCIEVNQkA9lETJ1uoSoKLV0ifDsJFIMAfb8YdmYrs0OAPpkdW6lWU2pHNYuwPipqkoFsDnUpW2htC1ageeVgtM7NISw2iQRyRECu77dhwYpmrBzcCrp+jkTCptSVgFyfBDge19V8qb5MtnZGzV6GyZiHlqlLU20XX55dArI1KYMEA1kZFBUrQ7bQOHAqZmBWhwQCCMj1fQayFBoJxCUg1ycZyMa1R5ael60dBrJZsr6adZWtSRmtVD+QHTUbyyYD81qmopo1JM1hpw9rKGPU8dTM0mqU/2868NTMFmR5wUqe0LSJ7AQc46T48kIM9mzNaoHuhNKPovGL8oz7N4DTdjLEzzJIIG8EpPl+2wKssJ1ax/TyQu+pDE//0PEUZkbop0N9P9K782Y5tievBKT5JJIbj71zoXJfNwJoZ5dQPh6Pwuxl0+GadkXsE/Jq+7jtkqedaLaJooOyNmlz9OnDUJptu+aIPu91FeCYL7LfjyuXujwvT5Pyqqt0IFtyqmo6Q8up/J7RHKV5ZSkQM8pvx0LH0Tmjs44WjMkzg9ySpAjN5NguJq8rm62jxWIgXQC0OgJZnVejPYE1mKLiYkCUZ/TfwBE0m50cg1m5WmFp+SIgw/ftfnElmq2jxcL/FqDVcb3AmFQ3lhYGzQkLKgez0Xxf72RKx5mtccBvcp0v67E1eSQgwyeR4HhcNg8yx1qnv0Uaj0UdFwx9Bq2lXQAz8K5m/pZHAcRokxTtmAsgWl89TxwsNo4WA7MXDMUzrfYGURQdBAWx2jzRmBaaNvfZ8PA+69VUmzG5ZL8fQy/1eFSOJuXWVM1A1rsyE7kj9E6uKsPyC2QtR7QnaHKB16M0GUJzTjj7B92R1QfX47DKtYNtTmjby3du9bZHfKatrQ1z57pv5nknwfVgyXeQQJYIxPd9Zx/aP/COrN53HrfKvQPrmGz73qeP6PvlvEP6lCwZiHUtHIH4PmnuhpoLxlLHYzPwEKv5rhwY3rG25vFYn8s1Zv6UW1qilaEd5zx3TeAdWaPfD9NBWDCq/3sUm0f5Ddjvp6W7Su+VoUnZ7VIykHVOksRZlfIJUwCFagMdBrLBcnKulgXdkfWdzOqxavlOt/WmWp5xPevZQZftECyPBLJMIP4g45zQBN2RNSYYx62yr2kYzCpPPOL4ftmOUJaNxLoXikB8nzQDWfOEkszx2Ag6tPjFk9AtQqBRaZwvGdh38apQ5o/VWBna8c6nfZM91aQD/+A3ymZQ1P486u9iQebDVRGQocmqXhjhx0oGss56B01+ytsW5FTBFHw74rBdhQhQ0/6JDKE52YilOp+sxRUmrYGDYC3P2DQjDZxpw+f7SSBFAvF93+mj8N+RrdBHBi8mxvH9oMA5RdB8NQlEJBDfJ92Lw/LGY/dOrysHSYR5UKTxOChAisiu6D+ToR3nDukzQ/2zFgf225V0UMs8T1/vNO7U2seRg6zMfl9F/UvRpOSG5SeQjbCC6GVX3hHn4yiDHKFZiSU60NHRgPbHvIleKnQygauwtTxjWS0ftpHsvyyOBFwEpPi+dbWjQ/h+Qzse8+7WVNhlCV54rN33qz1pQ0mQgEoEpPhkKdGTzPHYvdPrZha2MRBhPI4csKhkLbXqIkc7dsKlDtGnY1X553eCdz4r6KDCIkWlndSo/XnU36llsfzXRo4m5XLKfyBb4b6tf9bil8uP2chlnnhp8oTmyDhXdk85bGLqt+JWyzMGLiMJV/Ztk7jx+YJCE5Dm+45MlGUJ1sICWd/j/9X4vjvTJRO8FVrSmW+8NJ+0ju5r6WGljMfhgWxQrpDA8dg13+J4HVe88rTjzDpdbpewQNZXB2GBrCMJqM2h0gIJ+/24eqnH8zI1Kau++Q9kHaS8uwW+R2NykB1XttCcafftTIZhE1NvEijNELU8Y+8MZ/2zSLKcluWQQBABub7v/NyHY/ITFsh6k0Dpla3F941WWguODGip+ywSkOuT7s/gxBuPwwNZb/KfUlZaRPmyg9V/MKCtVbeytePcvHH2p2GBbLkO9N0F//vV1saD86sTFoAqjpqz369VNck+J1uTMmqbn0A2wjGWSIFsaeLk/iyPDNj1KkO20KzkEtpneOxPE9Vy563KZyp9SqleMPkeEsgQAbm+byV70j7DI74nbe0C1f2ObOUEchkyD6taQAJyfdIIPptXGp/FizceV3lHtqbxuLovSRRQHhWbLFs72hxYS/akfYZnuvjgr7UQUp87shGOo3toRLqHTdHUlYBsTcqofH4C2QipuqMGspVWmmRAT7oM2UIrZUlc476kH9T5Vep8Ij9jHVGK8D2ypHmyfBLICgG5vm9nLdY+22B/cztoclp5ohLZ9/1g15ADISs2Yz3zTUCuT9qBbKuE8ThwrPb6W83jcfXBS77VUF3rZGvHCmRbpmqfVrO/Ax5ZB87qBy5oBo0PYfeufdiw369OMHX4tWxNyqhyjgJZgcPnBospdAAAIABJREFUQ95uv3N/yifIebO+CiRbaEGBrP/3wkIGLt+OyfsMBz8Zzs0yikdAru8HBbIBOzlhp2Ii+b6/zbLeJxdPiWyxRUCuTwYHsjWNxwE+6150ijMec0c2jifI1k5QIBuUSbhywqUAXQQFn1UcK7aYsd+Po55knpWtSRm1zFcgK4hUOlfvdUrekQ2WUNuCZeizqAVTRU5+I5CdiY0jpmMYnsLMlqkwUvWbHZnjv5UxLVtciPAMvz0nw7dZRgEJxB9kxMRzWR8s0n3cDGRnbsQI8bkEPOX4bqw5Abb/m8+kplbfP2MDWlrn2tYLWaAsoJnZ5AwRiO+T2hic1Hjsk0jRG4hEHI+ddTTMUz7WZ8hsSlRVhna0OdkZG1qgdalWIPvYodPLkmeWJfAqC0h97FnWNwcvXFQMijWNsd9XQnNhlZChybB3VPvvuQtkDQDOJCVOJO4EBf5Zi6MkMagWc31/L0Vo3mzPWhN8j/m6M82JH7mzPvtOQkOecWRM9SPHpC/11RPflh0CMnzfmdzNarmdVMbBwuun3v6hFt93ZmYtvSr7fXJ2FMSayiYgwyet02auukkbj90JpERKZLE+ZSxiG/GocaVIS5ZccTyOPGeQTTi/5UnRjp/9yrJemzNn/esQFk9vvxuwMOGxu//8LGxX3zsn1OrAfl9FZUvRpOSGKR/ISm5vIYqTLbTS0WLHJkkhQLKRJJAxAnJ93z5aTNfPmBBYXWUIyPVJx9FiOqUyNk6qIrK1Yx8ttlYpkqo5y80rAdmalMGJgawMioqVIVtoDGQVMzCrQwIBBOT6PgNZCo0E4hKQ65MMZOPaI0vPy9YOA9ksWV/NusrWpIxWMpCVQVGxMlQUmmKIWB0SyCUB+n4uzcpGZZgAfTLDxku56tROygbg68sIqKhJBrI5FKqKQsshZjaJBJQjQN9XziSsUMEJ0CcLLoAYzad2YsDjo4kQUFGTDGQTMXW6haootHSJ8O0kUAwC9P1i2JmtzA4B+mR2bKVaTakd1SzC+qioSQayOdSlikLLIWY2iQSUI0DfV84krFDBCdAnCy6AGM2ndmLA46OJEFBRkwxkEzF1uoWqKLR0ifDtJFAMAvT9YtiZrcwOAfpkdmylWk2pHdUswvqoqEkGsjnUpYpCyyFmNokElCNA31fOJKxQwQnQJwsugBjNp3ZiwOOjiRBQUZMMZBMxdbqFqii0dInw7SRQDAL0/WLYma3MDgH6ZHZspVpNqR3VLML6qKhJBrI51KWKQsshZjaJBJQjQN9XziSsUMEJ0CcLLoAYzad2YsDjo4kQUFGTDGQTMXW6haootHSJ8O0kUAwC9P1i2JmtzA4B+mR2bKVaTakd1SzC+qioSQayOdSlikLLIWY2iQSUI0DfV84krFDBCdAnCy6AGM2ndmLA46OJEFBRk4kEsonQY6EkQAIkQAIkQAIkQAIkQAIkQAKpEFi7dm0q7w16aSKBrGqNVIp4HSqj4opJHZrNV5BA4QnQ9wsvAQJQjAB9UjGDZKg61E6GjFWQqqqoSQayORSfikLLIWY2iQSUI0DfV84krFDBCdAnCy6AGM2ndmLA46OJEFBRkwxkEzF1uoWqKLR0ifDtJFAMAvT9YtiZrcwOAfpkdmylWk2pHdUswvqoqEkGsjnUpYpCyyFmNokElCNA31fOJKxQwQnQJwsugBjNp3ZiwOOjiRBQUZMMZBMxdbqFqii0dInw7SRQDAL0/WLYma3MDgH6ZHZspVpNqR3VLML6qKhJBrI51KWKQsshZjaJBJQjQN9XziSsUMEJ0CcLLoAYzad2YsDjo4kQUFGTDGQTMXW6haootHSJ8O0kUAwC9P1i2JmtzA4B+mR2bKVaTakd1SzC+qioSQayOdSlikLLIWY2iQSUI0DfV84krFDBCdAnCy6AGM2ndmLA46OJEFBRkwxkEzF1uoWqKLR0ifDtJFAMAvT9YtiZrcwOAfpkdmylWk2pHdUswvqoqEkGsjnUpYpCyyFmNokElCNA31fOJKxQwQnQJwsugBjNp3ZiwOOjiRBQUZMMZBMxdbqFqii0dInw7SRQDAL0/WLYma3MDgH6ZHZspVpNqR3VLML6qKhJBrI51KWKQsshZjaJBJQjQN9XziSsUMEJ0CcLLoAYzad2YsDjo4kQUFGTDGQTMXW6haootHSJ8O0kUAwC9P1i2JmtzA4B+mR2bKVaTakd1SzC+qioSQayOdSlbKG1LViB5pWD0To3h7DYJBLIEQG5vt+GBSuasXJwK+j6ORIJm1JXAnJ9EuB4XFfzpfoy2doZNXsZJmMeWqYuTbVdfHl2CcjWpAwSDGRlUFSsDNlC48CpmIFZHRIIICDX9xnIUmgkEJeAXJ9kIBvXHll6XrZ2GMhmyfpq1lW2JmW0Uv1AdtRsLJsMzGuZivI1JG2iNQHHWCQ6nsJM398FofI8X/rZy1hY2oUI+M3LCzFY0S1KeULzabtPu7VAd4JtBDw1swUVF/w0m04fhgZf3g5beX+nMHMZzsgySCAuAWm+37YAK2yn1qv18kLvqYza+t/Q/iLSu+OS4vMkUB8C0nwSCY3HZeV2lI/h9Mn6iMXzFnnaGYXZy6ZjmD3pAnzmy1qgO93xo/I+vzIG6/mg59x9v1aFmdwdTkVZtb9UniZrr4P3SaUD2ZJT+QaoRqfeWHIE01ERLZi1HKrc4bRy9MjZDMa87xEIrQBL0cBKitDMNraLyevKZutosWCxAGh1BPA6x0abuWEzBAezernHYVUp2LU6WOfigc1Ye7/xOnMQV5S5PJdkSSRQOwEZvm/4cLtYzFuJZutosZjILkCr43pBbf1vlP6izehkSseZwyZHtdPikySQPAEZPmnNOaSPx+a4Kpy95NvG3MgdzNInk9eJ3xukaMe0sTZXnicOFhtHi4HZC4bimVZ7g8ju982+11y8iB7M2gst/vNqEUhHnJ+nQ5tvjUJAjiajvCn6b9QMZL2rf0ErR8etcu/AOoKvSpulZQ5bkZdPIKvHWdZkT737YzKE5pxw9g+6I1sWlGogzcC0PWDHelSb6FbnYq5ze93Hbvr74SlD10Vj+I5vdP3zlySQKwLxfd/Z3/UPvCOr93/V9r+19Be6dUL6lFxZkI3JG4H4PmkcJ7YWjKWOx2I0bmsT47HrErz/nMdtF/pkPXQqQzvOueqawDuyhs2dCxpa+7wLj5Xa7NzN9Qay1ZRTD658R+0EZGiy9rf7P6lkIOucJInt0fIJkzmxOW6V91hChM41YrBr4ypwIGsGkkF3ZH0nszUF+V7G/p2qtStr78LLdgeWRwLZJhB/kHH6XtAdWaOfrbb/jdNf+C5sZdtUrH1BCMT3STOgqNt4HGEeZQU53sXmgti0Xs2UoR3vfNo32ZO+SaDFsZ6NmcibB9pYMQIbF67CcROGwT5Jp4fDvkFyvRjyPXIJyNCk3BoBSgayzkZWu/IftvITNJkKBusfyIa9R7ahqilPhtCcq3iiF/LJWlxhsIvc+Vmt8jAOfD7aAFsNK/6WBPJEIL7vO30M/juyFRYDg/vFOP1FUOCcJ8uxLXklEN8n3SfAkh+Po4yz9Ml66FWGdsS2aukk2zND/bMWB/bbETd+SguNi/ro+U9cgWxQkFwPgHyHdAJSNCm5VhkOZJ33LG0qlQPVKB20l7BPIFt1oCbZaiHFyRGadd+hAx0dDWh/zJvopcJA5nuEsEKlvTwrdHzcmamvlvi2bBGQ4vvW1Y4O4fsN7XjMu0pfwb+D+9/a+wuVFw2zpQ7WNg0CUnyylJCpDuNxhOCFPlkfJcnRjp3oqUP06VhV/vmd4HlVhN1U53zNRzulMWEeMNmZ5JP5TuojIslvkaNJuZXKZyCrJyrxu7saFMiWZ3Szz/j7Zy1WOduaPKE5uJTdUw6bmHqPlwQI1+z4xMVXO3tdWCDrSC4l1x1YGglkm4A033dkDC/r68ICWd/+t5r+wt0fq9zXZlstrH09CEjzSeuuuJZ5NqnxODCpIn2yHlrxvkOedszj6frXJTyJNcV/CQtkg69zeQLdoHwn2nudmlU8YWoats7KO2VqUlab8xnIepOQlGhF2ZH1rkD5HS0OyLQryyoxy5EtNGfKdDvAD5uY+u+YO5tWSg7gXZkLC2R5LyemQvh4XgnI9X3nIp5j8hMWyPr2v7X3F1Y/wYA2r6rNd7vk+qQzIHF+Eqt2/yrRL53ECP/yA32yPpqVrR1nQiZnfxoWyHqTQBmt95lPBway5Z90Cv3CRX0Q8y1VEpCtySpf7/vzDAey/jt+YUdewv69/GJ6UAa/KJn9ZJio+jJkC81K9qR9hsdOyx/nzps9GPumducd2eqNzidIQBCQ6/tWsiftMzzie93Winrd78iqnSWewiOBSgTk+qQxdjavND6LJ2s8riUwVfnLDXlRpGztaDbTkj1pn+HRvhdrzb9quSPra/+gQNbvFF2EI+x5sWOe2iFbkzLYZDOQdXwXq2Wq6zsuxkefgz79ohELvd8aZUfWXo0qz9wpwyzxypAttFLW4jXaN2DtBYSgzq/yAGftZvt8dN1qdmAHp+7iQTyL8WkSkENAru/bWYu1zzYY35bVrmwE+WHlEy+19Rcml9B+Ww4/lkICsgnI9Uk7kG2VMh6HLCpXgkGflC2VsvJka8cKZFumap9WmwDryHDgnC3Qxv5X7twNME7xuMcOxy+qzaWSOG2+IAoB2ZqM8s6w32Q0kA34vlWkFR5zshX4Yeaogay6QZVsoQUFsv6LAiHHtyMNfgFlRHo2TPL8dxLILwG5vh8UyNbY//r6b5TrHtyRza9i898yuT4ZHMjWNB5HmjP524g7sslrV7Z2ggJZBOgg/ASjh4FfOQFlUz/J6yeJN8jWpIw6ZjaQtRzPThIUbUJkQLNWk8ovvZc7dDHvyLYtWIY+i1qgbXgbgexMbBwhdrtdCwDliwJlnZN578Z1hCXKHVfPc/yGrAx3Zxl5JxB/kBH93bI+WNQyFUv1frIZK2duxAhxEsOVkK0sSZtP/1vmwxH6C63cMzagpXWubaqycvJuRbYvTwTi+6Q2BiczHkf6HCF9MjU5ytCOZuMzNrRA61KtQPaxQ6eLY+nu+a+RC8Xx38oWHsM2gQSmqEGrX5LP1CjzxdUQkKHJat4X5bfZDWS11jkya+qNrTKdt/PiuwuWq5yAIxRVviuKMWT9RorQrMQPzkr5ttmb8dmzOOAXyOqZ8/z+/J+1fslkL7IUwnLySkCG7zuTu1mcfO+yh/W/vgFoSH/hzMxaMlKFawh5NSTblRsCMnzS2G31DJwSxuPAOZBO3/K78q862P+WGzMp2RAp2vH207pp/RN6uft+b79beyBrTNe16ylaym3jz3dMUdIKrJSTgBRNSkaqfCArub2FKE620EpHix2bJIUAyUaSQMYIyPV9+2gxXT9jQmB1lSEg1ycdR4vplMrYOKmKyNaOfbTYmVsmqdqz3DwSkK1JGYwYyMqgqFgZsoXGQFYxA7M6JBBAQK7vM5Cl0EggLgG5PslANq49svS8bO0wkM2S9dWsq2xNymglA1kZFBUrQ0WhKYaI1SGBXBKg7+fSrGxUhgnQJzNsvJSrTu2kbAC+voyAippkIJtDoaootBxiZpNIQDkC9H3lTMIKFZwAfbLgAojRfGonBjw+mggBFTXJQDYRU6dbqIpCS5cI304CxSBA3y+GndnK7BCgT2bHVqrVlNpRzSKsj4qaZCCbQ12qKLQcYmaTSEA5AvR95UzCChWcAH2y4AKI0XxqJwY8PpoIARU1yUA2EVOnW6iKQkuXCN9OAsUgQN8vhp3ZyuwQoE9mx1aq1ZTaUc0irI+KmmQgm0Ndqii0HGJmk0hAOQL0feVMwgoVnAB9suACiNF8aicGPD6aCAEVNclANhFTp1uoikJLlwjfTgLFIEDfL4ad2crsEKBPZsdWqtWU2lHNIqyPippkIJtDXaootBxiZpNIQDkC9H3lTMIKFZwAfbLgAojRfGonBjw+mggBFTXJQDYRU6dbqIpCS5cI304CxSBA3y+GndnK7BCgT2bHVqrVlNpRzSKsj4qaZCCbQ12qKLQcYmaTSEA5AvR95UzCChWcAH2y4AKI0XxqJwY8PpoIARU1mUggmwg9FkoCJEACJEACJEACJEACJEACJJAKgbVr16by3qCXJhLIqtZIpYjXoTIqrpjUodl8BQkUngB9v/ASIADFCNAnFTNIhqpD7WTIWAWpqoqaZCCbQ/GpKLQcYmaTSEA5AvR95UzCChWcAH2y4AKI0XxqJwY8PpoIARU1yUA2EVOnW6iKQkuXCN9OAsUgQN8vhp3ZyuwQoE9mx1aq1ZTaUc0irI+KmmQgm0Ndqii0HGJmk0hAOQL0feVMwgoVnAB9suACiNF8aicGPD6aCAEVNclANhFTp1uoikJLlwjfTgLFIEDfL4ad2crsEKBPZsdWqtWU2lHNIqyPippkIJtDXaootBxiZpNIQDkC9H3lTMIKFZwAfbLgAojRfGonBjw+mggBFTXJQDYRU6dbqIpCS5cI304CxSBA3y+GndnK7BCgT2bHVqrVlNpRzSKsj4qaZCCbQ12qKLQcYmaTSEA5AvR95UzCChWcAH2y4AKI0XxqJwY8PpoIARU1yUA2EVOnW6iKQkuXCN9OAsUgQN8vhp3ZyuwQoE9mx1aq1ZTaUc0irI+KmmQgm0Ndqii0HGJmk0hAOQL0feVMwgoVnAB9suACiNF8aicGPD6aCAEVNclANhFTp1uoikJLlwjfTgLFIEDfL4ad2crsEKBPZsdWqtWU2lHNIqyPippkIJtDXaootBxiZpNIQDkC9H3lTMIKFZwAfbLgAojRfGonBjw+mggBFTXJQDYRU6dbqIpCS5cI304CxSBA3y+GndnK7BCgT2bHVqrVlNpRzSKsj4qaZCCbQ13KFlrbghVoXjkYrXNzCItNIoEcEZDr+21YsKIZKwe3gq6fI5GwKXUlINcnAY7HdTVfqi+TrZ1Rs5dhMuahZerSVNvFl2eXgGxNyiDBQFYGRcXKkC00DpyKGZjVIYEAAnJ9n4EshUYCcQnI9UkGsnHtkaXnZWuHgWyWrK9mXWVrUkYr1Q9kR83GssnAvJapKF9D0iZaE3CMRaLjKcz0+Z3mvNOHNZR4vbywmt3FUZi9bDocj5vldOCpmS0wFrYCfhNQHxmGq1SGPKF5+GovfXkhBju3ZjX7TB8GB10sjLCDowXHE2zDOVg6WuYt2/vupEGyfBLIGAFpvt+2ACtsB9UplPeb0fpfL8JQ34/07owZhtUtLAFpPolkxmO3P+qe7j+Gczyuu4blacdnjlpxfmr9PkALFolIfXW17647Zr6wCgLyNFnFS0N+qnQgWwpAfR3O6NQbn5ppHpMwnQXuYNYoo93umE3HixLMWu/vKL3DpunepTTf3e4M8sxBJ4VgVorQzEGrXQT9K5uto8WiTQuAViuQ1X9zHFaVBfSVOz994Gy07WRwhjuYdbzfeJ3Jk8GsPO9nSbkjIMP37T5zJZqto8Wi31yAVsf1gmj9r28QG+L7bUYnUzrObPXDUfrs3BmUDco8ARk+icTGY8+YXlqU94zhHI9T0aEU7ZhzJ22uPE8cLDaOFgOzFwzFM61+G0TadMtayAyby0Xoq4V2Fgx9Bq2l48zpzY1TMWLOXipHk3KhqBnIeld5fIJBfXJz3Cr3DmxAZyuiWNf9Tm8g5YtUr0Oj/05h2QN+gazVGUQtQ55hZQjNyah/0B3ZUW2ii5yLuc6t8jIbeNpVFvxq/17OT38/PLu/VdlEHk+WRAJZIRDf950Bav/AO7LR+t/afL+cdUD/mhWjsJ6FJhDfJ43jxNbir9Tx2M8yPmM4x+N0JCxDO87NnDWR7sg6d1BDdmSjzoXLVzSrmF+nw55v9ScgQ5Oy2SoZyDonSeJcb3nAagY+x62ydmMtLJ4Jjx74oPyYTGhA5N1tCMOe00DWDCSruyNbmZ3vBFgLZV0750YZ3gUIa1fW3oUPswv/nQSKRSD+IOP0vaA7skZ/F9r/lsWxfn251/f97eU7kS6WadnajBKI75NmIJvAeBzgbZ7xl+NxWtKToR3vfDo02ZM2Px6xEQtXHYcJztOMESFE6qt9NzQivoA/S5WADE3KboCSgayzkdWu/HtXLp1HWEvlhu0aBgXAgfT9A9myY82yrRdQngyhOesuRrUqshZXCmQr7Kw4Fxf6B+2Gc2emThLiazJKIL7vO30M/juyFfrP4NMuEX3fN5lmUOCcUSOx2oUiEN8n3Ys98sbjADN4g4zAhX+Ox0kLWYZ2jGPCxsnAZ4aGZS22Fy0W9fFcy4vU2Ih9ddVz7Egv54/qQECKJiXXM8OBrPNupk3FGfhqR3DKjqfqPw1aYTTKiXT02GUInw49LFiWbEhncXKEZiWW6EBHRwPaH4uYIKvibneFTs45eOqBrM9OumUb75HjBFmyaBLIEgEpvm9d7egQvt/Qjse8ydsqrKYHnbiwrg+U7+IKuiGr89X3x1myGOuadwJSfLKU6EnmeOxH3mchukLQEWn3Le8GTrB9crRjHxXuEH06VgV/fsdpz1o2YiL11SnOjRM0VWGKlqNJubjyGciaxyG0lctKgWzQEdUgZ/Rm97OTQAVkLU4pMZE8oTnaFSVpldlBiaW/gO+UhQWyw6All2oVaWUqBrKOZDFy3YGlkUC2CUjzfUeG0rJkd2GBrO9xtIi+ryd2c/enfsn2sm0l1r5IBKT5pNMvpIzHphVc2YidX2Mw/z0skOV4nJic5WnH3KDRvxQRcO/VY+dogWzEvtqV96bae7eJ4WXBNRCQqckaXu/7SD4DWTMJVHI7st5Jmf8RGyPw9RkYZFkvoBzZQnMG8EGZQ0sZpisG72GTWXOXnTuyCSuExeeVgFzfd37uwzH5CAtkvUn4dNgRfd/naHGl7PF5tSPblR8Ccn3SGZD4fRLL4BZtPPZjbAUmjnlLWCDLE1KJiVW2dpyfonQtEPrskkYLZN1Nj9ZXW+MKA9rEhJNgwbI1KaOqGQ5kzd07fQXf/pNxRzbcgaMFsn7ZeGUYLawM2UKzkj1pn+HxC8ytQDf88xgR78nxjmyYifnvJOBLQK7vW8metM/wiO91W7tAdb8jGy0hFCVBAioSkOuTRiDbvNL4LF688TiIll/STL+vL/CObNJ6k60dbW6rJXvSPsMzfViD+W1wuTlewufPGrVqE6omTZrlRyUgW5NR31vpd9kMZAOdwO2QgQ4VlrU49Ax/1EDWnW1QhsGilCFbaKWsxWu078Y6FxB8Vm9DKhh0bNtlq0D+7Pyi2J+/KS4Bub5vZy3WPttgf487yA8rT2wj+X6Q6cL67OKanC1XnIBcn7QD2VYJ43Gwuzm+9c7xODWFydaOFci2TNU+rTYB+vW6DWeIq1z6mePgv2quyUXqq7kIkpqoYr5YtiZjVkd/PKOBbEBCJm+HG9ABR7mQbuwyBh19iBrIpuOssoUWGMhG6rA8MvV9xsspgFst75PhJSyDBDJCQK7vBwWyEftfL7NIvu8POtoqf0aMxGoWioBcn6wQyEobHzkeqyJQ2drxDWSn+qaK93wSMTqRaH01NyWiE1Xrl7I1KaN1mQ1kjUyXw2AnFqp0T9URkEbu7CvtNnqdMH93ZNsWLEOfRS3Q+jgjkJ2JjSOmYxiewsyWqdC6vkgZC81L/vaxY5OVoxzfjq/sOXZ8MhyeZeSbQPxBRvjZsj5YpPu4GcjO3IgRrr5WMIzS/9bi+1q5Z2xAS6vjzkhZOfm2IVuXLwLxfVIba5MZj7Wx94wNLXC7m88iPsfjVEQpQztOG1uB7GOHTq+wUWM0tXxe5pm7Reyrndo1S9a/Q+6cS6YCly+tiYAMTdb04goPZTeQNTxND2YbrAYGHH9wZxuuMvmSK9uag6Qra2BA1uIomQVlW1SUJ0Vofu328PVmcXY3xVw88J2EenlVyqJnH3lh9tIExMIic0VAhu/7+bXv/few/rcm3/frS6vss3NlUTYm6wRk+KTxLVDP8U8Z47HXhzXYQfMWTx04HievTCnaqcbGjiaFBrKe7PLGo0FZrytrN3mSfIMsAlI0KasyZjnKB7KS21uI4mQLrXS02JNYqxAw2UgSyBABub5vHy2m62dIBKyqUgTk+qTjaDGdUik7J1EZ2dqxjxb7HydOog0sM18EZGtSBh0GsjIoKlaGbKExkFXMwKwOCQQQkOv7DGQpNBKIS0CuTzKQjWuPLD0vWzsMZLNkfTXrKluTMlrJQFYGRcXKUFFoiiFidUgglwTo+7k0KxuVYQL0yQwbL+WqUzspG4CvLyOgoiYZyOZQqCoKLYeY2SQSUI4AfV85k7BCBSdAnyy4AGI0n9qJAY+PJkJARU0ykE3E1OkWqqLQ0iXCt5NAMQjQ94thZ7YyOwTok9mxlWo1pXZUswjro6ImGcjmUJcqCi2HmNkkElCOAH1fOZOwQgUnQJ8suABiNJ/aiQGPjyZCQEVNMpBNxNTpFqqi0NIlwreTQDEI0PeLYWe2MjsE6JPZsZVqNaV2VLMI66OiJhnI5lCXKgoth5jZJBJQjgB9XzmTsEIFJ0CfLLgAYjSf2okBj48mQkBFTTKQTcTU6RaqotDSJcK3k0AxCND3i2FntjI7BOiT2bGVajWldlSzCOujoiYZyOZQlyoKLYeY2SQSUI4AfV85k7BCBSdAnyy4AGI0n9qJAY+PJkJARU0ykE3E1OkWqqLQ0iXCt5NAMQjQ94thZ7YyOwTok9mxlWo1pXZUswjro6ImGcjmUJcqCi2HmNkkElCOAH1fOZOwQgUnQJ8suABiNJ/aiQGPjyZCQEVNJhLIJkKPhZIACZAACZAACZAACZAACZAACaRCYO3atam8N+iliQSyqjVSKeJ1qIyKKyZ1aDZfQQKFJ0DfL7wECEAxAvRJxQySoepQOxkyVkGqqqImGcjmUHwqCi2HmNkkElCOAH1yLeR/AAARL0lEQVRfOZOwQgUnQJ8suABiNJ/aiQGPjyZCQEVNMpBNxNTpFqqi0NIlwreTQDEI0PeLYWe2MjsE6JPZsZVqNaV2VLMI66OiJhnI5lCXKgoth5jZJBJQjgB9XzmTsEIFJ0CfLLgAYjSf2okBj48mQkBFTTKQTcTU6RaqotDSJcK3k0AxCND3i2FntjI7BOiT2bGVajWldlSzCOujoiYZyOZQlyoKLYeY2SQSUI4AfV85k7BCBSdAnyy4AGI0n9qJAY+PJkJARU0ykE3E1OkWqqLQ0iXCt5NAMQjQ94thZ7YyOwTok9mxlWo1pXZUswjro6ImGcjmUJcqCi2HmNkkElCOAH1fOZOwQgUnQJ8suABiNJ/aiQGPjyZCQEVNMpBNxNTpFqqi0NIlwreTQDEI0PeLYWe2MjsE6JPZsZVqNaV2VLMI66OiJhnI5lCXKgoth5jZJBJQjgB9XzmTsEIFJ0CfLLgAYjSf2okBj48mQkBFTTKQTcTU6RaqotDSJcK3k0AxCND3i2FntjI7BOiT2bGVajWldlSzCOujoiYZyOZQlyoKLYeY2SQSUI4AfV85k7BCBSdAnyy4AGI0n9qJAY+PJkJARU0ykE3E1OkWqqLQ0iXCt5NAMQjQ94thZ7YyOwTok9mxlWo1pXZUswjro6ImGcjmUJeyhda2YAWaVw5G69wcwmKTSCBHBOT6fhsWrGjGysGtoOvnSCRsSl0JyPVJgONxXc2X6stka2fU7GWYjHlombo01Xbx5dklIFuTMkgwkJVBUbEyZAuNA6diBmZ1SCCAgFzfZyBLoZFAXAJyfZKBbFx7ZOl52dphIJsl66tZV9malNFK9QPZUbOxbDIwr2UqgteQRmH2sukY1lABScdTmKmV0bYAKyYcU/bDlxfmZ8dRntC0iewEuGi9vBCDnVuzmn2mD4ON/mUs9NnB0TrQ6Q4DVcvbet7vOS3Qtk3q/34ZzsIySEB1AtJ836efLPc9T/9g9bEhkNz+2oGnZrbAtUEQ6d2qW4L1IwGDgDSfhJzx2O1/Wg0jjJll47xpXY/Pl5dt/K7a8Z7aka0dnzlyxf7a+n2INsy+uuOpmaG7vKH9vmX0iHNKaiQdAvL6M3n1VzqQLQU/ESdIJSymI7T7Bae64zW6Jk+VgiR5qOtXkhShORiubLaOFouBdAHQagWy+m+Ow6rSRNS/8zP4ttsBrtn5RR/c7AHc+4zROdqdrfEulE+O64efbyKB1AjI8H3bX1ei2TpaLHx2AVod1wsMn2wsTWBM34e5YBhAQPfXRvs3fv7aZnQypePMeeufUxMHX5wKARk+CWnjsWcMR8SApWys90ep+zc8i92pUM/HS6Vox1wA0frqeeJgsXG0GJi9YCieaQ3YICotJlYKZO3gOCyQjdLv6xarem6YDztnqRVyNCm3xWoGst4V+YQDWVideXs+OmAZQnN2PP2D7siOahNd5FzMdW6Vly0iGBNeEcW67th6O7ZKsnbu5roCWd8FC7NzzYkt5bo7S8s7gfi+7wxQ+wfekdV98rhVxikXz0q67wKi9hvfyXAUf43ym7xblu3LKoH4PmkcJ7YWgOKNxz4UKy38u3zbuWjNQLYeepShHedGwppId2Sdu7cVAlnHPL1iIBu134+iw3pA5zsqEpChSdmIlQxknZMkcWa4fMIURqHKHVkGsuVAnSur1d2R9ezU6J2dFsd6Esb47IwHDI1iMj0CGxeuwnEThsE1SQ4og6vCYQ7Cf88rgfiDjHPhKeiOrDHROW6V9zhZ5YDTN/jV41vPiQ0f49Cn86rY/Lcrvk+agay50xlrPPbF7b/Y7Ppp0Dju+lFQv5B/GyfVQhna8c6nQ5M9abYesRELVx2HCc6TdD62PvSxhcAE58mcchJR+/2g3yXFluXWRkCGJmt7c/BTSgayzurWJO6qA1nvMTnZmOtbngyhOSeXIpKsImuxm2XgzmvE1bfSBHZRH/0uriuQrbAjWz7Jrq8N+DYSSINAfN93BqPw35Gt4LvBJy0qBLmhi1qcIKehJb5TDoH4Pule7IkzHvu2KMqxYQaycsRQZSkytGMc1zWu0z0zNCxrsb2osahP8AKjPS/fgDNcV0y8DYza77OPr1Iaqf1ciiYl156BrABazTFXyfwTKU6O0Kx7qR3o6GhA+2MRk2F5JqXBOylVrgIHTJ7978g67uMmQpiFkoCaBKT4vnVkrEP4fkM7HvOepqgw8Q1eeKwwUQmZSOetf1ZTOaxVUgSk+GQp0VO88bi8jdEW8b3JGrVyyo+T+iSjipJIKinwOShXjnYcd1lFn45VwZ/fcc7XAk/KuPrrMP1E7fft+aCWk8VO3umTDDAHds1yE+RoUi6Bggay3qzF+XIWeUJz3JWIck/ZDDbF0l8pg11YIGsni/EK2xPohu0ClUwaIQOjXB9iaSSgDAFpvu/IHFk2YQ0LZH2Po4VNaJynLdwZNsMSiSgDnxUhAR8C0nyylJhJjyLd99P9yPuMx/rPXFlha5z7WItd3q8YuOph+XGN76CaJGa8Njds9HlSwBzJs+vuH8h6+/G4gazZ76+xv37hzINibFRQPyq5grz+TF6rChrIurMWlzr2ip2yPOhJlyRbaM606UGZhksrth6GYYGsNwmUwcbnOIpvIOvTiQYN3klDZ/kkoAABub7v3GFxTH7CAllvEiiHT/se+Q/ZkbX6Fga0CgiMVaiagFyfdAYkwZ+1CRqPyysfI9gMvRIQMJZXTbC4D8jWjnNn3dWf+syv/ALZ8tMxcQNZM4EYzEC2bA5ujkE5mZvnQcmyNSmDCQNZi2KkTlkG8uTLkC00K7mEceSjfHXMCnQDv/Hq+NxGqfUVdlh9VwJ9fh905DBK8pjkrcA3kED9Ccj1fSvZk/YZHvE9aWsXKOx0hJ+/V8oMH6HvpU/XX0t8oxwCcn3SCGSbVw5GLeOxf4tqzApeTZ4L3z5BDt88lyJbO1o/qiV70j7DM31Yg/l9X3/7+3820bMJ5Pi0T4vrY+CWVSLekTUDWb+M97xaopbCZWtSRusYyJb8zftNVBl40ylDttBKWRLN4x92ZxO+mhs4AQ2cvPrds/Fy1HaHFqGPyJw6zO8zO1GSV6RjGr6VBBIlINf37azF2mcb7G9BB63CV54Qx1p4ihDsJgqWhZNAjQTk+qQdyLbWMB4HNaGmYIGBbI2KiP6YbO1YgWzLVO3Tama24Q1niGRQ3ut2njq+/H/xVOPnIGLfCn/+R4Cj9fvBO7vMWB9dL/X4pWxNyqgzA1mLYo4mSrKFFhjIRmFWKUlTNau03JGV4e8sI+cE5Pp+UCAbkCAvbGLr219E2w3ijmzOhZvj5sn1yQqBbJTx2JdzNB/0PhrNJ8OOnubY8BKaJls7voGs705qtM+iCTXaAXFAOc6syfZPyjXnH/BGKF8CZxYRnYBsTUZ/c/AvGchqbKzkBzk5hy9DaG0LlqHPohZoHY8RyM7ExhFiBxR2komoK2XezMLlHZvZqTnKLpOs3yTZ7z5szmwpw8lZRnEIxPd9MXFY1geLWqZiqT5JacbKmRsxQnz6ypnEzeoz7f/mMxk2E8LYVw7K/bxsMqz57xkb0NI61zZaWTnFsSdbmn0C8X1SG4PljMeav52xoQVu99KuDDkTAJX7aduCBUCr41vwpk9671kuGPoMWkvRinViiwkYa1WxDO04bW4Fso8dOt1j8/Ia1rxQUUu/r7++PGgtmzvWCpLPSSMgQ5PSKmMWVNBAtvwYRVASI9nA61GeFKFZWQmdFfZL5BR4IsU9eDkTRomUi/o3zcpW56oNZB2dn7MaebJlPfTCd+SHgAzfd/uqwcbXp1zZT/UfYXBoAOrOSFyeQdP779rbmbUyPwotXktk+KSx+OsZbGsZj70+q7uXNwOyXyDr/CRKgE/6lZ2TzYG0VCtFO5FsnmQgq5Ud1u9b7/dcLYuSnTst4xT0vVI0KZmd8oGs5PYWojjZQisdLXZskhQCJBtJAhkjINf37aPFdP2MCYHVVYaAXJ90HC2mUypj46QqIls79tFicdSOfyRQAwHZmqyhCmWPMJCVQVGxMmQLjYGsYgZmdUgggIBc32cgS6GRQFwCcn2SgWxce2TpednaYSCbJeurWVfZmpTRSgayMigqVoaKQlMMEatDArkkQN/PpVnZqAwToE9m2HgpV53aSdkAfH0ZARU1yUA2h0JVUWg5xMwmkYByBOj7ypmEFSo4AfpkwQUQo/nUTgx4fDQRAipqkoFsIqZOt1AVhZYuEb6dBIpBgL5fDDuzldkhQJ/Mjq1Uqym1o5pFWB8VNSk9kD3iiCPw2muv0dopElBRaCni4KtJoDAE6PuFMTUbmhEC9MmMGErBalI7Chql4FVSMcaTHsj27dsXGzZswIcfflhwc6fXfHZ+6bHnm0kgTQL0/TTp890kUE6APklV1EqA2qmVHJ9LgkDXrl3Rp08frF+/Poniay5TeiB7yCGHYOvWrdixY0fNleKD8Qiw84vHj0+TQFYJ0PezajnWO68E6JN5tWzy7aJ2kmfMN0Qn0L17d+y///546623oj9Uh19KD2T3228/9OjRQ7mG1oGlMq9g56eMKVgREqgrAfp+XXHzZSQQSoA+GYqIPwggQO1QGioR0DYqt2/fjm3btqlULUgPZLWt54aGBrz33nv6ziz/6k+AnV/9mfONJKACAfq+ClZgHUjAJkCfpBpqJUDt1EqOz8kmoO3E7rvvvujo6FDu6qj0QFaD161bNxx00EH68WIGs7LlFF4eO79wRvwFCeSRAH0/j1Zlm7JMgD6ZZeulW3dqJ13+fLtBQAtitWPF77zzDnbt2qUclkQCWSuY7dmzJ/bYYw89mH3//feVi+KVs4akCrHzkwSSxZBAxgjQ9zNmMFY39wTok7k3cWINpHYSQ8uCQwhop2v33ntvPYj96KOPsHnzZiWDWK0ZiQWyWuEaCG0rWrszqwHR/v/8IwESIAESIAESIAESIAESIAESUIuAFrh2dnbqG5DanVjtqqjKX6JJNJBVyzSsDQmQAAmQAAmQAAmQAAmQAAmQQB4IMJDNgxXZBhIgARIgARIgARIgARIgARIoEAEGsgUyNptKAiRAAiRAAiRAAiRAAiRAAnkgwEA2D1ZkG0iABEiABEiABEiABEiABEigQAQYyBbI2GwqCZAACZAACZAACZAACZAACeSBAAPZPFiRbSABEiABEiABEiABEiABEiCBAhFgIFsgY7OpJEACJEACJEACJEACJEACJJAHAgxk82BFtoEESIAESIAESIAESIAESIAECkSAgWyBjM2mkgAJkAAJkAAJkAAJkAAJkEAeCDCQzYMV2QYSIAESIAESIAESIAESIAESKBABBrIFMjabSgIkQAIkQAIkQAIkQAIkQAJ5IMBANg9WZBtIgARIgARIgARIgARIgARIoEAEGMgWyNhsKgmQAAmQAAmQAAmQAAmQAAnkgQAD2TxYkW0gARIgARIgARIgARIgARIggQIRYCBbIGOzqSRAAiRAAiRAAiRAAiRAAiSQBwIMZPNgRbaBBEiABEiABEiABEiABEiABApEgIFsgYzNppIACZAACZAACZAACZAACZBAHggwkM2DFdkGEiABEiABEiABEiABEiABEigQAQayBTI2m0oCJEACJEACJEACJEACJEACeSDAQDYPVmQbSIAESIAESIAESIAESIAESKBABBjIFsjYbCoJkAAJkAAJkAAJkAAJkAAJ5IEAA9k8WJFtIAESIAESIAESIAESIAESIIECEWAgWyBjs6kkQAIkQAIkQAIkQAIkQAIkkAcCDGTzYEW2gQRIgARIgARIgARIgARIgAQKRICBbIGMzaaSAAmQAAmQAAmQAAmQAAmQQB4I/D8+wdq+08yRfgAAAABJRU5ErkJggg==;" vertex="1" parent="1">
          <mxGeometry x="740" y="660" width="670.64" height="190" as="geometry" />
        </mxCell>
        <mxCell id="Kkue_cFC0ciW1MiDXrlJ-27" value="&lt;li&gt;&lt;b&gt;Free Flow Runs: The AWS Free Tier provides 100 flow runs per month for the first 12 months.&lt;/b&gt;&lt;/li&gt;&lt;li&gt;&lt;b&gt;Free Data Transfer: 1 GB of data processed per month for the first 12 months.&lt;/b&gt;&lt;/li&gt;" style="text;whiteSpace=wrap;html=1;" vertex="1" parent="1">
          <mxGeometry x="90" y="740" width="520" height="80" as="geometry" />
        </mxCell>
      </root>
    </mxGraphModel>
  </diagram>
</mxfile>
